#tb 0: 1/25
0,          0,          0,        1,   149760, 0x8edb27d7
0,          1,          1,        1,   149760, 0x2c271a9b
0,          2,          2,        1,   149760, 0x53e419f3
0,          3,          3,        1,   149760, 0x96c92a29
0,          4,          4,        1,   149760, 0x62d5e85b
0,          5,          5,        1,   149760, 0xea307d47
0,          6,          6,        1,   149760, 0x9cc40dec
0,          7,          7,        1,   149760, 0x37d977fa
